<?xml version="1.0" encoding="UTF-8"?>
<svg width="206px" height="120px" viewBox="0 0 206 120" version="1.1" xmlns="http://www.w3.org/2000/svg" xmlns:xlink="http://www.w3.org/1999/xlink">
    <title>2D1236DB-1BAD-4902-B898-44F9D0BF4762</title>
    <defs>
        <polygon id="path-1" points="0 0 13.5094628 0 13.5094628 24.3306828 0 24.3306828"></polygon>
        <polygon id="path-3" points="0 61 108 61 108 0 0 0"></polygon>
    </defs>
    <g id="Page-1" stroke="none" stroke-width="1" fill="none" fill-rule="evenodd">
        <g id="Avaleht" transform="translate(-85.000000, 18.000000)">
            <g id="logo" transform="translate(87.000000, -16.000000)">
                <path d="M100.337345,66.0930233 C133.487274,66.0930233 160.360601,52.505386 160.360601,35.744186 C160.360601,18.9829861 133.487274,5.39534884 100.337345,5.39534884 C67.1874166,5.39534884 40.3140896,18.9829861 40.3140896,35.744186 C40.3140896,43.541254 46.1294129,50.6515707 55.6866895,56.0268028" id="Path" stroke="#FFD320" stroke-width="4" stroke-linecap="round" stroke-linejoin="round" transform="translate(100.337345, 35.744186) rotate(-5.000000) translate(-100.337345, -35.744186) "></path>
                <path d="M21.8626529,43.9670719 C18.2255165,49.8688456 16.2361304,56.2621199 16.2361304,62.9386373 C16.2361304,81.8403412 32.1810017,98.4718599 56.3187021,108.107633" id="Path" stroke="#FFD320" stroke-width="4" stroke-linecap="round" stroke-linejoin="round" transform="translate(36.277416, 76.037353) rotate(-5.000000) translate(-36.277416, -76.037353) "></path>
                <path d="M104.593256,107.05573 C153.474858,107.05573 193.101226,82.8999307 193.101226,53.1022419 C193.101226,45.5088918 190.527953,38.281917 185.883995,31.7276908" id="Path" stroke="#FFD320" stroke-width="4" stroke-linecap="round" stroke-linejoin="round" transform="translate(148.847241, 69.391711) rotate(-5.000000) translate(-148.847241, -69.391711) "></path>
                <path d="M202,36 C195.714286,65.3333333 173.714286,84 136,92" id="Path-7" stroke="#FFD320" stroke-width="4" stroke-linecap="round" stroke-linejoin="round"></path>
                <path d="M36,65 C53.9259259,21.6666667 94.2592593,0 157,0" id="Path-8" stroke="#FFD320" stroke-width="4" stroke-linecap="round" stroke-linejoin="round"></path>
                <path d="M36,19.8336484 C86.2857143,4.40831758 130.285714,7.13043478 168,28" id="Path-9" stroke="#FFD320" stroke-width="4" stroke-linecap="round" stroke-linejoin="round"></path>
                <path d="M7,83 C85.0441176,109.666667 146.044118,109.666667 190,83" id="Path-10" stroke="#FFD320" stroke-width="4" stroke-linecap="round" stroke-linejoin="round"></path>
                <path d="M0,47 C25.1782946,85 63.8449612,97.2142857 116,83.6428571" id="Path-11" stroke="#FFD320" stroke-width="4" stroke-linecap="round" stroke-linejoin="round"></path>
                <path d="M72,116 C42.8484848,111.490196 30.922865,88.4901961 36.2231405,47" id="Path-12" stroke="#FFD320" stroke-width="4" stroke-linecap="round" stroke-linejoin="round"></path>
                <path d="M99,34.2345679 C145.310345,24.1522634 171.643678,32.0740741 178,58" id="Path-13" stroke="#FFD320" stroke-width="4" stroke-linecap="round" stroke-linejoin="round"></path>
                <g id="Group-14" transform="translate(47.000000, 26.000000)">
                    <g id="Group-3" transform="translate(0.000000, 3.520437)">
                        <mask id="mask-2" fill="white">
                            <use xlink:href="#path-1"></use>
                        </mask>
                        <g id="Clip-2"></g>
                        <path d="M10.0057541,24.3306828 C7.98192852,24.3306828 6.35909193,23.841175 5.13904248,22.8603728 C3.91899303,21.8813572 3.30941785,20.1403886 3.30941785,17.6383605 L3.30941785,9.28367673 L-8.99078445e-05,9.28367673 L-8.99078445e-05,5.1442985 L3.30941785,5.1442985 L3.89291976,0 L8.29300967,0 L8.29300967,5.1442985 L13.5094628,5.1442985 L13.5094628,9.28367673 L8.29300967,9.28367673 L8.29300967,17.677664 C8.29300967,18.6057637 8.49350416,19.2444464 8.8962913,19.5919255 C9.29817937,19.9402979 9.99226793,20.114484 10.9794561,20.114484 L13.3934817,20.114484 L13.3934817,24.3306828 L10.0057541,24.3306828 Z" id="Fill-1" fill="#1D1D1B" mask="url(#mask-2)"></path>
                    </g>
                    <mask id="mask-4" fill="white">
                        <use xlink:href="#path-3"></use>
                    </mask>
                    <g id="Clip-5"></g>
                    <path d="M16.8190605,27.8519234 L21.8026523,27.8519234 L21.8026523,8.66553911 L16.8190605,8.66553911 L16.8190605,27.8519234 Z M19.3104068,5.68650881 C18.4014385,5.68650881 17.6561025,5.41585028 17.0717015,4.87453323 C16.4873005,4.33321618 16.1959991,3.6498704 16.1959991,2.82449589 C16.1959991,1.99912138 16.4873005,1.32202844 17.0717015,0.793217063 C17.6561025,0.26529895 18.4014385,0 19.3104068,0 C20.2184761,0 20.9647112,0.26529895 21.5491122,0.793217063 C22.1335131,1.32202844 22.4248146,1.99912138 22.4248146,2.82449589 C22.4248146,3.6498704 22.1335131,4.33321618 21.5491122,4.87453323 C20.9647112,5.41585028 20.2184761,5.68650881 19.3104068,5.68650881 L19.3104068,5.68650881 Z" id="Fill-4" fill="#1D1D1B" mask="url(#mask-4)"></path>
                    <path d="M25.8515621,27.8511195 L25.8515621,8.93262458e-05 L30.8342549,8.93262458e-05 L30.8342549,11.6053552 C31.4833895,10.5477324 32.3590919,9.71610508 33.4631603,9.11047314 C34.5654304,8.50394793 35.8313329,8.20113195 37.2590695,8.20113195 C39.6470218,8.20113195 41.4955271,8.94879263 42.8063835,10.444114 C44.1172398,11.9403286 44.772668,14.1323947 44.772668,17.0203122 L44.772668,27.8511195 L39.8286356,27.8511195 L39.8286356,17.4848087 C39.8286356,15.8340597 39.4977748,14.5709865 38.835154,13.6938028 C38.1743313,12.8175123 37.1287031,12.3789205 35.7018656,12.3789205 C34.2993032,12.3789205 33.1376939,12.8684283 32.2170375,13.8483372 C31.2954821,14.8282461 30.8342549,16.1949377 30.8342549,17.9484119 L30.8342549,27.8511195 L25.8515621,27.8511195 Z" id="Fill-6" fill="#1D1D1B" mask="url(#mask-4)"></path>
                    <path d="M56.1410654,24.4473429 C57.5679029,24.4473429 58.6773657,23.9828464 59.4694538,23.0547467 C60.2615419,22.1257538 60.7605305,20.9788048 60.9691167,19.6121132 L56.7245673,19.6121132 C55.4011238,19.6121132 54.4534952,19.8506143 53.8825804,20.3276165 C53.3116655,20.8046186 53.0266577,21.391492 53.0266577,22.0873435 C53.0266577,22.8358974 53.3116655,23.416518 53.8825804,23.828312 C54.4534952,24.2409993 55.2060238,24.4473429 56.1410654,24.4473429 M55.0118229,28.3151694 C53.3503259,28.3151694 51.987323,28.0507637 50.9237132,27.5219523 C49.8592043,26.9940342 49.0680153,26.2910366 48.549247,25.4147462 C48.0295797,24.5375624 47.769746,23.5710524 47.769746,22.5125364 C47.769746,20.7340509 48.4710272,19.2896455 49.8726905,18.1802135 C51.2743538,17.0725681 53.3763992,16.5178521 56.1797258,16.5178521 L61.0859969,16.5178521 L61.0859969,16.0533556 C61.0859969,14.73758 60.709283,13.77107 59.9567543,13.1520391 C59.2033266,12.5330082 58.2691841,12.2239394 57.1534277,12.2239394 C56.1410654,12.2239394 55.2581704,12.4624405 54.5056417,12.9394427 C53.752214,13.4164448 53.2855923,14.1185491 53.1039784,15.0475421 L48.2372668,15.0475421 C48.3676332,13.6549459 48.8405484,12.443682 49.6587098,11.4110706 C50.4759721,10.3802457 51.5332884,9.58702866 52.8315577,9.03231267 C54.1289278,8.47848995 55.5827377,8.20157859 57.1920881,8.20157859 C59.9432682,8.20157859 62.1109463,8.88492437 63.6942234,10.2507227 C65.2775006,11.6183075 66.0686896,13.5522207 66.0686896,16.0533556 L66.0686896,27.8515661 L61.8250393,27.8515661 L61.3584176,24.7564117 C60.7866037,25.7881299 59.9882221,26.639409 58.9641717,27.3093558 C57.9383232,27.9801959 56.6211733,28.3151694 55.0118229,28.3151694" id="Fill-7" fill="#1D1D1B" mask="url(#mask-4)"></path>
                    <path d="M77.6320072,28.3152587 C75.9192628,28.3152587 74.4133064,28.0374541 73.1159362,27.4836313 C71.8176669,26.9298086 70.7792313,26.1624962 70.0015284,25.1825872 C69.2220274,24.2026783 68.7554057,23.0673417 68.5998651,21.778364 L73.6221173,21.778364 C73.7776579,22.526918 74.1993257,23.1647073 74.8871207,23.6926255 C75.5749157,24.2214368 76.4641043,24.4858425 77.5546864,24.4858425 C78.6443695,24.4858425 79.4427512,24.2669932 79.9489323,23.8284014 C80.4551135,23.3898095 80.7077546,22.8869027 80.7077546,22.3196811 C80.7077546,21.4943066 80.3445269,20.9333377 79.6171724,20.6367746 C78.890717,20.3411047 77.8783547,20.0507944 76.5809845,19.766737 C75.750236,19.5871912 74.9069004,19.3674486 74.0500787,19.1092958 C73.1932569,18.8520362 72.4083614,18.5233156 71.6944931,18.1222408 C70.9806249,17.7238457 70.4034165,17.20754 69.961969,16.5751102 C69.5205215,15.9435736 69.3002472,15.1637555 69.3002472,14.2356558 C69.3002472,12.5330976 69.9817487,11.1020911 71.3438526,9.94174318 C72.7068555,8.78139525 74.6209935,8.20077465 77.0871657,8.20077465 C79.3708249,8.20077465 81.194156,8.72958602 82.5571589,9.78720877 C83.9201618,10.8448315 84.7311306,12.3008493 84.9909643,14.157942 L80.2797932,14.157942 C79.9938863,12.7394412 78.9167903,12.0301908 77.0485053,12.0301908 C76.1134637,12.0301908 75.3933019,12.2115231 74.8871207,12.5715079 C74.3809395,12.9332792 74.1282985,13.3843767 74.1282985,13.9256937 C74.1282985,14.4929154 74.5041133,14.9449062 75.2566419,15.2798796 C76.0100697,15.6148531 77.0089458,15.9248151 78.2550686,16.2079793 C79.6045853,16.5170481 80.8444145,16.8591677 81.973657,17.2334446 C83.1020004,17.6068283 84.0037761,18.1615443 84.678984,18.8966993 C85.3532929,19.6309611 85.6913464,20.682331 85.6913464,22.0490225 C85.7165206,23.2352751 85.4054394,24.3054035 84.7572039,25.2594078 C84.1080692,26.2134121 83.1739267,26.9610728 81.9538773,27.5032831 C80.7338278,28.0446002 79.2926051,28.3152587 77.6320072,28.3152587" id="Fill-8" fill="#1D1D1B" mask="url(#mask-4)"></path>
                    <path d="M98.3446168,12.2238501 C97.1245673,12.2238501 96.0474713,12.5659696 95.1133288,13.2484221 C94.1782873,13.9326612 93.5812992,14.9706322 93.3223646,16.3623351 L102.938908,16.3623351 C102.860688,15.099262 102.393167,14.0934484 101.537244,13.3457878 C100.680423,12.5981271 99.6159137,12.2238501 98.3446168,12.2238501 M98.3059564,28.31508 C96.3594516,28.31508 94.6323219,27.9023928 93.1272646,27.0770183 C91.6213082,26.252537 90.4408182,25.0921891 89.5839964,23.5959745 C88.7280737,22.1006531 88.3001124,20.3730835 88.3001124,18.4132657 C88.3001124,16.4275432 88.7208811,14.6606701 89.5651158,13.1135395 C90.4084513,11.5664089 91.5763542,10.3613979 93.0688245,9.49671982 C94.5612947,8.63293503 96.3198921,8.20148926 98.3446168,8.20148926 C100.238975,8.20148926 101.913059,8.61328325 103.366869,9.43865776 C104.820679,10.2640323 105.956215,11.3922228 106.773477,12.8232292 C107.591639,14.2542357 107.99982,15.8469226 107.99982,17.6003968 C107.99982,17.8844543 107.992628,18.1801242 107.98004,18.4900863 C107.967453,18.7991551 107.947674,19.1225161 107.9216,19.4574895 L93.2441448,19.4574895 C93.3475388,20.9528108 93.8734997,22.1256645 94.8211283,22.9778368 C95.7678579,23.8282227 96.9168802,24.2534156 98.2663969,24.2534156 C99.2787593,24.2534156 100.128388,24.0283135 100.817082,23.5763227 C101.503978,23.1261184 102.016453,22.539245 102.354507,21.8165956 L107.415419,21.8165956 C107.052192,23.0296461 106.44891,24.1319319 105.605574,25.1243465 C104.762239,26.1167611 103.722904,26.8974725 102.491167,27.4646942 C101.257631,28.0310226 99.8622612,28.31508 98.3059564,28.31508" id="Fill-9" fill="#1D1D1B" mask="url(#mask-4)"></path>
                    <path d="M36.4684199,48.6217048 C38.0507979,48.6217048 39.3625534,48.0937867 40.400989,47.036164 C41.4385255,45.9794345 41.9572938,44.6127429 41.9572938,42.9360893 C41.9572938,41.2594356 41.4385255,39.8793451 40.400989,38.796711 C39.3625534,37.7140769 38.0507979,37.1718666 36.4684199,37.1718666 C34.8581704,37.1718666 33.5419195,37.7078241 32.516071,38.7770593 C31.4911216,39.848081 30.9786469,41.2210253 30.9786469,42.8967857 C30.9786469,44.5734394 31.4911216,45.9463838 32.516071,47.0165122 C33.5419195,48.0866406 34.8581704,48.6217048 36.4684199,48.6217048 L36.4684199,48.6217048 Z M26.0732749,60.9996427 L26.0732749,33.3040402 L30.5120252,33.3040402 L31.0559676,36.049929 C31.679029,35.1995431 32.5034839,34.4518824 33.5284334,33.8069469 C34.5542819,33.1620115 35.8840189,32.840437 37.5194426,32.840437 C39.335581,32.840437 40.9584176,33.2790288 42.3861542,34.1553193 C43.8129917,35.032503 44.9422342,36.2312613 45.7738818,37.7524872 C46.6037312,39.2746065 47.0191054,41.0012828 47.0191054,42.9360893 C47.0191054,44.8700025 46.6037312,46.5913192 45.7738818,48.1000395 C44.9422342,49.6078666 43.8129917,50.7950124 42.3861542,51.6579039 C40.9584176,52.5216887 39.335581,52.9540277 37.5194426,52.9540277 C36.0656327,52.9540277 34.7943358,52.6833692 33.7037537,52.1420522 C32.6140706,51.5998418 31.7311755,50.8396755 31.0559676,49.8597666 L31.0559676,60.9996427 L26.0732749,60.9996427 Z" id="Fill-10" fill="#1D1D1B" mask="url(#mask-4)"></path>
                    <path d="M59.002922,36.8627085 C57.7828726,36.8627085 56.7057766,37.204828 55.7716341,37.8872805 C54.8365925,38.5715196 54.2396044,39.6094905 53.9806698,41.0011935 L63.5972129,41.0011935 C63.518993,39.7381203 63.0514722,38.7323068 62.1955496,37.9846461 C61.3387278,37.2369855 60.2742189,36.8627085 59.002922,36.8627085 M58.9642616,52.9539384 C57.0177568,52.9539384 55.2906271,52.5412512 53.7855698,51.7158766 C52.2796134,50.8913954 51.0991234,49.7310475 50.2423016,48.2348328 C49.386379,46.7395115 48.9584176,45.0119419 48.9584176,43.0521241 C48.9584176,41.0664016 49.3791863,39.2995285 50.223421,37.7523979 C51.0667566,36.2052673 52.2346595,35.0002563 53.7271297,34.1355782 C55.2195999,33.2717934 56.9781973,32.8403476 59.002922,32.8403476 C60.8972803,32.8403476 62.5713644,33.2521416 64.0251742,34.0775161 C65.478984,34.9028907 66.6145201,36.0310811 67.4317824,37.4620876 C68.2499438,38.8930941 68.6581254,40.485781 68.6581254,42.2392552 C68.6581254,42.5233127 68.6509328,42.8189826 68.6383457,43.1289446 C68.6257586,43.4380134 68.6059789,43.7613745 68.5799056,44.0963479 L53.90245,44.0963479 C54.005844,45.5916692 54.5318049,46.7645228 55.4794336,47.6166952 C56.4261632,48.4670811 57.5751854,48.892274 58.9247022,48.892274 C59.9370645,48.892274 60.7866936,48.6671719 61.4753877,48.2151811 C62.1622837,47.7649768 62.6747584,47.1781034 63.0128119,46.455454 L68.0737244,46.455454 C67.7104967,47.6685044 67.1072151,48.7707903 66.2638795,49.7632049 C65.4205439,50.7556195 64.3812093,51.5363309 63.1494718,52.1035525 C61.9159362,52.6698809 60.5205664,52.9539384 58.9642616,52.9539384" id="Fill-11" fill="#1D1D1B" mask="url(#mask-4)"></path>
                    <path d="M78.9946505,52.9541171 C77.281906,52.9541171 75.7759497,52.6763124 74.4785795,52.1224897 C73.1803102,51.568667 72.1418746,50.8013545 71.3641717,49.8214456 C70.5846707,48.8415367 70.118049,47.7062001 69.9625084,46.4172224 L74.9847606,46.4172224 C75.1403012,47.1657763 75.561969,47.8035657 76.249764,48.3314838 C76.937559,48.8602952 77.8267476,49.1247009 78.9173297,49.1247009 C80.0070128,49.1247009 80.8053945,48.9058516 81.3115756,48.4672597 C81.8177568,48.0286679 82.0703978,47.5257611 82.0703978,46.9585394 C82.0703978,46.1331649 81.7071702,45.5721961 80.9798157,45.275633 C80.2533603,44.9799631 79.240998,44.6896528 77.9436278,44.4055953 C77.1128793,44.2260496 76.2695437,44.006307 75.412722,43.7481542 C74.5559002,43.4908946 73.7710047,43.162174 73.0571364,42.7610992 C72.3432682,42.3627041 71.7660598,41.8463984 71.3246123,41.2139686 C70.8831648,40.582432 70.6628905,39.8026139 70.6628905,38.8745142 C70.6628905,37.171956 71.344392,35.7409495 72.7064958,34.5806016 C74.0694988,33.4202536 75.9836368,32.839633 78.4498089,32.839633 C80.7334682,32.839633 82.5567993,33.3684444 83.9198022,34.4260672 C85.2828051,35.4836899 86.0937739,36.9397077 86.3536076,38.7968004 L81.6424365,38.7968004 C81.3565296,37.3782996 80.2794336,36.6690492 78.4111486,36.6690492 C77.476107,36.6690492 76.7559452,36.8503815 76.249764,37.2103662 C75.7435828,37.5721375 75.4909418,38.0232351 75.4909418,38.5645521 C75.4909418,39.1317738 75.8667566,39.5837646 76.6192852,39.918738 C77.372713,40.2537114 78.3715891,40.5636735 79.6177118,40.8468377 C80.9672286,41.1559065 82.2070578,41.498026 83.3363003,41.872303 C84.4646437,42.2456867 85.3664194,42.8004027 86.0416273,43.5355577 C86.7159362,44.2698194 87.0539897,45.3211894 87.0539897,46.6878809 C87.0791639,47.8741335 86.7680827,48.9442619 86.1198472,49.8982662 C85.4707125,50.8522705 84.53657,51.5999312 83.3165206,52.1421415 C82.0964711,52.6834585 80.6552484,52.9541171 78.9946505,52.9541171" id="Fill-12" fill="#1D1D1B" mask="url(#mask-4)"></path>
                    <path d="M98.0720162,49.0862013 C99.4988537,49.0862013 100.608316,48.6217048 101.400405,47.6936051 C102.192493,46.7646122 102.691481,45.6176632 102.900067,44.2509716 L98.6555181,44.2509716 C97.3320746,44.2509716 96.3844459,44.4894727 95.8135311,44.9664748 C95.2426163,45.443477 94.9576085,46.0303504 94.9576085,46.7262019 C94.9576085,47.4747558 95.2426163,48.0553764 95.8135311,48.4671704 C96.3844459,48.8798577 97.1369746,49.0862013 98.0720162,49.0862013 M96.9427737,52.9540277 C95.2812767,52.9540277 93.9182738,52.689622 92.854664,52.1608107 C91.7901551,51.6328926 90.9989661,50.929895 90.4801978,50.0536045 C89.9605305,49.1764208 89.7006968,48.2099108 89.7006968,47.1513948 C89.7006968,45.3729093 90.401978,43.9285039 91.8036413,42.8190719 C93.2053046,41.7114264 95.30735,41.1567105 98.1106766,41.1567105 L103.016948,41.1567105 L103.016948,40.692214 C103.016948,39.3764384 102.640234,38.4099284 101.887705,37.7908975 C101.134277,37.1718666 100.200135,36.8627978 99.0843785,36.8627978 C98.0720162,36.8627978 97.1891212,37.1012989 96.4365925,37.578301 C95.6831648,38.0553032 95.216543,38.7574075 95.0349292,39.6864004 L90.1682176,39.6864004 C90.298584,38.2938043 90.7714992,37.0825404 91.5896606,36.049929 C92.4069229,35.0191041 93.4642392,34.225887 94.7625084,33.6711711 C96.0598786,33.1173483 97.5136885,32.840437 99.1230389,32.840437 C101.874219,32.840437 104.041897,33.5237827 105.625174,34.889581 C107.208451,36.2571659 107.99964,38.1910791 107.99964,40.692214 L107.99964,52.4904245 L103.75599,52.4904245 L103.289368,49.3952701 C102.717555,50.4269882 101.919173,51.2782674 100.895122,51.9482142 C99.869274,52.6190543 98.5521241,52.9540277 96.9427737,52.9540277" id="Fill-13" fill="#1D1D1B" mask="url(#mask-4)"></path>
                </g>
            </g>
        </g>
    </g>
</svg>